PathFileType	4	(X/Y/Z)	C:\Data\4407\4407cd05.trc
DataRate	CameraRate	NumFrames	NumMarkers	Units	OrigDataRate	OrigDataStartFrame	OrigNumFrames
200.00	200.00	      4	29	mm	200.00	501	      2000
Frame#	Time	Offset			RShoulder			RUpperArm			RElbow			RForearm			RWrist			LShoulder			LUpperArm			LElbow			LForearm			LWrist			LPSIS			RPSIS			RASIS			RThigh			RKnee			RShank			RAnkle			RHeel			RLat5			RToe			LASIS			LThigh			LKnee			LShank			LAnkle			LHeel			LLat5			LToe			
		X1	Y1	Z1	X2	Y2	Z2	X3	Y3	Z3	X4	Y4	Z4	X5	Y5	Z5	X6	Y6	Z6	X7	Y7	Z7	X8	Y8	Z8	X9	Y9	Z9	X10	Y10	Z10	X11	Y11	Z11	X12	Y12	Z12	X13	Y13	Z13	X14	Y14	Z14	X15	Y15	Z15	X16	Y16	Z16	X17	Y17	Z17	X18	Y18	Z18	X19	Y19	Z19	X20	Y20	Z20	X21	Y21	Z21	X22	Y22	Z22	X23	Y23	Z23	X24	Y24	Z24	X25	Y25	Z25	X26	Y26	Z26	X27	Y27	Z27	X28	Y28	Z28	X29	Y29	Z29	

501	2.500	348.82205	-232.43770	1401.33972	418.75568	-93.27267	1527.26868	503.57959	-186.95552	1375.17871	577.57605	-140.54715	1232.73352	464.31940	-52.97536	1140.52771	417.63043	63.24175	1196.01050	87.44524	-189.02519	1518.04395	137.23260	-353.09406	1398.01111	76.79350	-427.46725	1296.86084	71.79273	-324.01846	1166.00085	16.54564	-182.26678	1172.89124	243.98601	-244.82993	1038.70703	294.54218	-239.91507	1039.22510	380.44379	-24.13157	1015.56085	323.20242	-43.80872	685.17023	391.12988	-174.70721	511.48383	346.63565	-242.43240	451.69431	306.64368	-586.14758	528.80200	240.84845	-582.62189	573.36145	259.33490	-675.25610	384.25436	357.73315	-692.58795	428.48471	136.03735	-45.20903	1022.10614	164.01804	73.95713	729.72034	125.36095	72.91144	563.68884	171.96869	115.92930	501.28989	179.89934	99.50151	138.50912	234.23372	39.51193	126.64889	182.33301	248.02541	70.30736	288.75922	248.77214	101.85798	
502	2.505	347.88342	-232.80673	1397.21704	419.48999	-93.17154	1522.93640	502.54364	-189.86212	1370.94861	577.17438	-145.54443	1228.64990	466.95590	-57.90220	1132.47974	420.72198	60.46861	1184.34399	86.63989	-187.63068	1512.61389	134.95222	-351.99588	1390.94202	73.90511	-424.19598	1289.05200	69.14994	-318.37701	1160.20337	14.63289	-176.79028	1170.04163	245.48795	-245.49582	1034.92163	296.08499	-240.38107	1035.14514	380.35297	-24.34302	1012.54919	324.49179	-37.97992	682.17084	392.80756	-164.45042	506.47559	348.46658	-232.92413	447.68933	307.48471	-573.91815	534.82019	241.92009	-569.90790	579.60010	260.89859	-665.74713	392.47699	358.46304	-683.56689	438.39667	135.47322	-46.69104	1018.72919	164.60109	71.11040	728.02686	126.09167	67.17979	559.55927	171.96651	110.01973	495.08691	181.72711	86.67152	131.90193	236.50964	27.06967	122.15688	184.71312	234.35286	60.70824	290.96036	235.61635	93.47802	
503	2.510	346.81485	-233.35262	1393.01062	420.12512	-93.24958	1518.41235	501.49753	-192.70764	1366.49902	576.47296	-150.31819	1224.33435	469.49973	-62.86810	1124.32727	424.18570	57.14557	1172.39001	85.78316	-186.43010	1507.69641	132.47546	-350.65540	1383.21021	70.80406	-420.89566	1280.76538	66.34029	-312.49362	1154.04590	12.85151	-170.65327	1167.13306	246.99544	-246.34483	1031.02136	297.74554	-240.84283	1030.98157	380.13269	-24.55376	1009.46344	325.88669	-32.48098	678.97656	394.55978	-153.73241	501.55811	350.19669	-222.65356	443.56540	308.71896	-561.27924	540.25494	243.10750	-556.70001	585.17285	262.12949	-655.56122	400.20416	360.19138	-672.41327	446.30634	134.92165	-48.21360	1015.03864	164.83029	68.49693	726.34094	127.18230	61.54833	554.99268	172.31616	103.62904	488.39481	183.39458	73.51424	125.38306	237.93756	13.95044	117.44537	187.10762	219.34372	50.67874	293.23532	221.43378	84.10471	
504	2.515	345.75333	-233.82225	1388.85913	420.76642	-93.28067	1513.60193	500.29184	-195.54663	1361.78516	575.78009	-155.30394	1219.65857	471.99304	-70.35913	1115.03931	427.66943	53.76400	1160.05945	84.99879	-185.12668	1502.68481	129.57669	-349.32578	1375.20300	67.47818	-417.11618	1272.24622	63.27100	-306.00409	1148.05359	10.97197	-164.36516	1164.18970	248.76750	-247.08911	1026.92859	299.39816	-241.39317	1026.71899	379.65298	-25.08615	1006.09314	327.31021	-28.16081	675.87640	396.37866	-143.04723	496.39542	352.18970	-212.08441	439.69397	310.44876	-548.12335	545.23169	244.79224	-542.97986	590.10693	265.38739	-649.56799	405.83557	362.32159	-660.76984	453.32355	134.21300	-49.68244	1011.13025	164.84773	66.29324	724.78674	128.34070	56.23278	549.65668	172.97205	97.40350	481.38742	184.78357	59.64457	119.07098	238.59918	0.11305	113.27943	188.57378	205.03732	46.60035	295.98788	205.98845	73.54694	
